HIERARCHY
ROOT Hips
{
	OFFSET 0.00000 0.00000 0.00000
	CHANNELS 6 Xposition Yposition Zposition Zrotation Yrotation Xrotation 
	JOINT LHipJoint
	{
		OFFSET 0 0 0
		CHANNELS 3 Zrotation Yrotation Xrotation
		JOINT LeftHip
		{
			OFFSET 3.13874 -1.57224 1.49786
			CHANNELS 3 Zrotation Yrotation Xrotation
			JOINT LeftKnee
			{
				OFFSET 2.10955 -5.79594 0.00000
				CHANNELS 3 Zrotation Yrotation Xrotation
				JOINT LeftAnkle
				{
					OFFSET 2.41843 -6.64458 0.00000
					CHANNELS 3 Zrotation Yrotation Xrotation
					JOINT LeftToe
					{
						OFFSET 0.04713 -0.12948 1.66229
						CHANNELS 3 Zrotation Yrotation Xrotation
						End Site
						{
							OFFSET 0.00000 -0.00000 0.85167
						}
					}
				}
			}
		}
	}
	JOINT RHipJoint
	{
		OFFSET 0 0 0
		CHANNELS 3 Zrotation Yrotation Xrotation
		JOINT RightHip
		{
			OFFSET -3.13988 -1.57224 1.49786
			CHANNELS 3 Zrotation Yrotation Xrotation
			JOINT RightKnee
			{
				OFFSET -2.15006 -5.90725 0.00000
				CHANNELS 3 Zrotation Yrotation Xrotation
				JOINT RightAnkle
				{
					OFFSET -2.34496 -6.44273 0.00000
					CHANNELS 3 Zrotation Yrotation Xrotation
					JOINT RightToe
					{
						OFFSET -0.08699 -0.23900 1.55223
						CHANNELS 3 Zrotation Yrotation Xrotation
						End Site
						{
							OFFSET -0.00000 -0.00000 0.80281
						}
					}
				}
			}
		}
	}
	JOINT lowerback
	{
		OFFSET 0 0 0
		CHANNELS 3 Zrotation Yrotation Xrotation
		JOINT Chest
		{
			OFFSET 0.01292 1.96517 -0.16495
			CHANNELS 3 Zrotation Yrotation Xrotation
			JOINT Chest2
			{
				OFFSET 0.02122 1.88666 0.19706
				CHANNELS 3 Zrotation Yrotation Xrotation
				JOINT lowerneck
				{
					OFFSET 0 0 0
					CHANNELS 3 Zrotation Yrotation Xrotation
					JOINT Neck
					{
						OFFSET -0.01683 1.81591 0.07903
						CHANNELS 3 Zrotation Yrotation Xrotation
						JOINT Head
						{
							OFFSET 0.00815 1.74013 -0.47700
							CHANNELS 3 Zrotation Yrotation Xrotation
							End Site
							{
								OFFSET -0.00204 1.83225 -0.16933
							}
						}
					}
				}
				JOINT LeftCollar
				{
					OFFSET 0 0 0
					CHANNELS 3 Zrotation Yrotation Xrotation
					JOINT LeftShoulder
					{
						OFFSET 3.38482 1.41533 0.19802
CHANNELS 3 Zrotation Xrotation Yrotation
						JOINT LeftElbow
						{
OFFSET 0 -4.327120 0.000000
CHANNELS 3 Zrotation Xrotation Yrotation
							JOINT LeftWrist
							{
OFFSET 0 -3.285870 -0.000000
CHANNELS 3 Zrotation Xrotation Yrotation
								JOINT lhand
								{
									OFFSET 0 0 0
CHANNELS 3 Zrotation Xrotation Yrotation
									JOINT LFingers
									{
OFFSET 0 -0.433160 -0.000000
CHANNELS 3 Zrotation Xrotation Yrotation
										End Site
										{
OFFSET 0 -0.349220 -0.000000
										}
									}
								}
								JOINT LThumb
								{
OFFSET 0 0.000000 0.000000
CHANNELS 3 Zrotation Xrotation Yrotation
									End Site
									{
OFFSET 0 -0.354560 0.354560
									}
								}
							}
						}
					}
				}
				JOINT RightCollar
				{
					OFFSET 0 0 0
					CHANNELS 3 Zrotation Yrotation Xrotation
					JOINT RightShoulder
					{
						OFFSET -3.09725 1.62858 -0.14144
CHANNELS 3 Zrotation Xrotation Yrotation
						JOINT RightElbow
						{
OFFSET 0 -4.291040 0.000000
CHANNELS 3 Zrotation Xrotation Yrotation
							JOINT RightWrist
							{
OFFSET 0 -3.227200 -0.000000
CHANNELS 3 Zrotation Xrotation Yrotation
								JOINT rhand
								{
									OFFSET 0 0 0
CHANNELS 3 Zrotation Xrotation Yrotation
									JOINT RFingers
									{
OFFSET 0 -0.543620 -0.000000
CHANNELS 3 Zrotation Xrotation Yrotation
										End Site
										{
OFFSET 0 -0.438280 -0.000000
										}
									}
								}
								JOINT RThumb
								{
OFFSET 0 0.000000 0.000000
CHANNELS 3 Zrotation Xrotation Yrotation
									End Site
									{
OFFSET 0 -0.444970 0.444970
									}
								}
							}
						}
					}
				}
			}
		}
	}
}
MOTION
Frames: 10
Frame Time: 0.008333333333333333
-24.875300 15.731400 8.119300 -175.306000 -9.420400 -175.389000 0.000000 0.000000 0.000000 -7.032500 -34.209400 -14.270600 1.437500 7.580200 21.446200 0.175800 -0.993200 -7.629900 13.368400 -18.911200 -70.266000 0.000000 0.000000 0.000000 39.652100 15.298200 8.089800 -0.004100 0.413900 -1.137200 -3.026400 -14.213100 -40.125300 -0.828800 -5.808300 16.229100 3.747000 3.250400 7.883500 2.059500 4.660200 -9.049700 -0.673100 1.699200 -14.282800 7.399000 9.613700 -11.438000 0.329300 9.730800 35.487200 0.156400 4.270100 14.529100 0.000000 0.000000 0.000000 13.536000 12.434900 -6.381500 142.835700 -46.297200 103.641300 27.121500 -49.842500 -32.381200 0.000000 0.000000 0.000000 -7.125000 0.000000 0.000000 -6.428500 65.342000 3.166300 0.000000 0.000000 0.000000 -22.501700 25.048800 29.952700 -121.259300 -55.964900 -86.704600 -18.497400 -9.806400 15.379400 0.000000 0.000000 0.000000 7.125000 0.000000 -0.000000 8.600000 45.974400 -0.208400
-24.892492 15.741466 8.141335 -175.428593 -9.552997 -175.288080 0.000000 0.000000 0.000000 -7.217059 -34.512855 -14.092134 1.373547 7.416362 20.955031 0.168346 -0.463445 -7.602863 13.427354 -18.931027 -70.447636 0.000000 0.000000 0.000000 39.913775 16.885097 9.099802 -0.008217 0.583350 -1.602996 -3.263223 -15.057475 -41.764617 -0.995968 -6.347865 17.798250 3.800496 3.367280 7.844637 1.901886 4.809057 -9.112884 -0.904087 1.751638 -14.308829 6.580725 9.049563 -11.803218 0.604696 8.896418 35.997885 0.275991 3.797237 14.734571 0.000000 0.000000 0.000000 14.936395 11.984399 -5.612720 145.215173 -44.649418 105.335262 27.587077 -49.487735 -32.624469 0.000000 0.000000 0.000000 -7.125000 0.000000 0.000000 -6.002224 65.724884 3.008540 0.000000 0.000000 0.000000 -23.294475 24.784856 28.488175 -124.902011 -54.847397 -89.701974 -18.822059 -10.310627 15.323987 0.000000 0.000000 0.000000 7.125000 0.000000 0.000000 8.286474 45.958799 -0.197343
-24.906073 15.755876 8.162218 -175.423311 -9.671820 -175.122881 0.000000 0.000000 0.000000 -7.113584 -34.789372 -14.006033 1.297069 7.215194 20.354725 0.167329 0.229598 -7.815992 13.463420 -18.943128 -70.558753 0.000000 0.000000 0.000000 40.262705 18.408371 9.979213 -0.014498 0.767182 -2.108357 -3.537836 -15.724092 -43.409785 -1.104570 -6.677675 18.763901 3.691046 3.396177 7.706570 1.981598 4.822029 -9.180211 -0.749730 1.768208 -14.318282 5.780734 8.590219 -12.193412 0.631373 8.303340 36.556623 0.333722 3.390486 15.006052 0.000000 0.000000 0.000000 16.163938 11.805863 -4.236712 147.477066 -42.949033 106.900295 27.806638 -49.660252 -33.017865 0.000000 0.000000 0.000000 -7.125000 0.000000 0.000000 -5.994451 66.191783 3.069382 0.000000 0.000000 0.000000 -24.180069 24.290071 27.179322 -128.148099 -53.702034 -92.336407 -18.740229 -10.077799 15.325950 0.000000 0.000000 0.000000 7.125000 0.000000 0.000000 8.362374 45.950459 -0.197130
-24.917645 15.770117 8.181264 -175.334182 -9.818586 -174.958057 0.000000 0.000000 0.000000 -6.829047 -34.828270 -14.106171 1.226427 7.023391 19.784854 0.163335 0.811130 -7.976883 13.537747 -18.967813 -70.787669 0.000000 0.000000 0.000000 40.588999 19.524677 10.751992 -0.025294 1.024867 -2.817200 -3.731554 -16.361613 -44.637102 -1.175923 -6.882063 19.366656 3.615594 3.389422 7.589460 2.096392 4.792144 -9.280258 -0.568135 1.758996 -14.382803 5.109039 8.218212 -12.377574 0.684163 7.807439 37.028592 0.387353 3.047413 15.210385 0.000000 0.000000 0.000000 17.468947 11.804994 -2.581217 149.568137 -41.255182 108.304578 27.821925 -50.136192 -33.133251 0.000000 0.000000 0.000000 -7.125000 0.000000 0.000000 -6.057185 66.314451 3.118623 0.000000 0.000000 0.000000 -25.149193 23.951868 25.898811 -131.463144 -52.380078 -94.987475 -18.486145 -9.710042 15.117910 0.000000 0.000000 0.000000 7.125000 0.000000 0.000000 8.546096 45.703452 -0.149432
-24.930864 15.783820 8.199303 -175.252541 -9.981910 -174.773020 0.000000 0.000000 0.000000 -6.554570 -34.871581 -14.212873 1.157564 6.830548 19.214361 0.157575 1.347667 -8.119781 13.613061 -18.992464 -71.019125 0.000000 0.000000 0.000000 40.930413 20.690382 11.509146 -0.037032 1.241537 -3.413563 -3.958389 -16.983357 -45.959180 -1.245806 -7.077099 19.943910 3.577184 3.356972 7.425089 2.189410 4.726527 -9.376478 -0.421516 1.728909 -14.408112 4.490906 7.899967 -12.461751 0.768435 7.372057 37.432928 0.451125 2.743843 15.369745 0.000000 0.000000 0.000000 18.878556 11.814202 -0.721767 151.396279 -39.664052 109.492392 27.730640 -50.583644 -33.086808 0.000000 0.000000 0.000000 -7.125000 0.000000 0.000000 -6.142384 66.240143 3.152109 0.000000 0.000000 0.000000 -26.153757 23.610977 24.582268 -134.597862 -50.959777 -97.448113 -18.334454 -9.573755 14.765867 0.000000 0.000000 0.000000 7.125000 0.000000 0.000000 8.600540 45.321637 -0.068777
-24.944839 15.796834 8.216604 -175.162922 -10.158004 -174.568780 0.000000 0.000000 0.000000 -6.246643 -34.878144 -14.352849 1.091409 6.638693 18.649570 0.152082 1.844785 -8.288949 13.702617 -19.021354 -71.294155 0.000000 0.000000 0.000000 41.203228 21.637203 12.066852 -0.048485 1.419946 -3.905025 -4.137455 -17.577281 -47.041927 -1.246743 -7.079404 19.950887 3.595172 3.303806 7.227086 2.261913 4.635324 -9.472263 -0.322126 1.679855 -14.405143 3.954864 7.646084 -12.442289 0.877500 7.002859 37.788226 0.519200 2.484140 15.492516 0.000000 0.000000 0.000000 20.324746 11.869401 1.288301 152.920096 -38.251035 110.449746 27.584341 -50.899376 -32.854200 0.000000 0.000000 0.000000 -7.125000 0.000000 0.000000 -6.166114 65.959476 3.124555 0.000000 0.000000 0.000000 -27.134451 23.298638 23.232675 -137.509250 -49.467070 -99.683831 -18.212132 -9.647500 14.109379 0.000000 0.000000 0.000000 7.125000 0.000000 0.000000 8.558766 44.629920 0.078387
-24.958707 15.809237 8.234158 -175.089731 -10.331985 -174.352539 0.000000 0.000000 0.000000 -5.944043 -34.947357 -14.443771 1.025709 6.442050 18.072801 0.149088 2.346784 -8.554282 13.797458 -19.051442 -71.584848 0.000000 0.000000 0.000000 41.365920 22.355369 12.389695 -0.057523 1.547142 -4.255736 -4.274012 -18.053861 -47.868829 -1.183340 -6.902915 19.428333 3.643670 3.249352 7.021185 2.301540 4.543593 -9.560503 -0.275854 1.626426 -14.382080 3.485864 7.431589 -12.383696 0.987961 6.667205 38.147810 0.581376 2.246214 15.617723 0.000000 0.000000 0.000000 21.735384 11.912957 3.325752 154.112654 -37.094600 111.179309 27.450743 -50.967228 -32.535543 0.000000 0.000000 0.000000 -7.125000 0.000000 0.000000 -6.115512 65.594490 3.047422 0.000000 0.000000 0.000000 -28.032948 22.996892 21.857526 -140.126102 -47.985252 -101.651493 -18.252506 -10.009961 13.240785 0.000000 0.000000 0.000000 7.125000 0.000000 0.000000 8.329162 43.737682 0.260273
-24.970744 15.821486 8.252330 -175.038426 -10.493400 -174.132462 0.000000 0.000000 0.000000 -5.659578 -35.115026 -14.442308 0.956734 6.228167 17.448060 0.147867 2.867890 -8.908861 13.887939 -19.079726 -71.861998 0.000000 0.000000 0.000000 41.376274 22.761911 12.422931 -0.063781 1.629728 -4.483427 -4.346694 -18.342786 -48.326566 -1.063468 -6.555733 18.405815 3.689088 3.200883 6.830003 2.312838 4.459609 -9.640919 -0.262090 1.576254 -14.356265 3.101692 7.255737 -12.295042 1.071619 6.365172 38.532429 0.622836 2.027415 15.759666 0.000000 0.000000 0.000000 23.017573 11.935558 5.300455 154.906081 -36.299399 111.654416 27.294132 -50.799401 -32.107876 0.000000 0.000000 0.000000 -7.125000 0.000000 0.000000 -6.025342 65.110800 2.934812 0.000000 0.000000 0.000000 -28.786649 22.699234 20.502025 -142.386279 -46.587838 -103.314590 -18.595146 -10.715931 12.280692 0.000000 0.000000 0.000000 7.125000 0.000000 0.000000 7.822750 42.780259 0.430572
-24.978790 15.833734 8.270837 -175.018177 -10.638617 -173.905908 0.000000 0.000000 0.000000 -5.408729 -35.421668 -14.318473 0.881746 5.985616 16.742935 0.145921 3.411732 -9.302788 13.968544 -19.104438 -72.108382 0.000000 0.000000 0.000000 41.227834 22.862034 12.180365 -0.067807 1.679626 -4.620991 -4.355687 -18.400108 -48.396882 -0.930034 -6.142460 17.198610 3.698440 3.164006 6.671336 2.292572 4.387545 -9.721376 -0.267760 1.533903 -14.350814 2.819633 7.125663 -12.164699 1.127271 6.097212 38.960854 0.639019 1.828099 15.926329 0.000000 0.000000 0.000000 24.038105 11.964260 7.068419 155.173754 -36.025812 111.812519 27.048438 -50.335797 -31.566425 0.000000 0.000000 0.000000 -7.125000 0.000000 0.000000 -5.982336 64.485081 2.826832 0.000000 0.000000 0.000000 -29.280697 22.442466 19.211430 -144.201265 -45.371671 -104.620096 -19.435192 -12.024646 11.158943 0.000000 0.000000 0.000000 7.125000 0.000000 0.000000 6.869013 41.694853 0.559999
-24.982494 15.846426 8.289881 -175.035167 -10.771912 -173.658142 0.000000 0.000000 0.000000 -5.198167 -35.849285 -14.117274 0.802283 5.715573 15.961692 0.137585 3.986829 -9.624550 14.032441 -19.123848 -72.303611 0.000000 0.000000 0.000000 40.950251 22.754593 11.730617 -0.070329 1.710679 -4.706797 -4.309723 -18.287228 -48.153176 -0.833401 -5.823018 16.272004 3.661717 3.133363 6.537749 2.240211 4.317151 -9.815012 -0.285218 1.494519 -14.377732 2.616067 7.043757 -11.981706 1.182550 5.861684 39.430164 0.644774 1.647654 16.110338 0.000000 0.000000 0.000000 24.694927 12.058718 8.507194 154.843233 -36.362605 111.616858 26.623090 -49.658015 -30.766079 0.000000 0.000000 0.000000 -7.125000 0.000000 0.000000 -6.014801 63.543576 2.709763 0.000000 0.000000 0.000000 -29.359687 22.259706 18.065051 -145.475293 -44.467885 -105.520019 -20.638454 -14.437050 9.811125 0.000000 0.000000 0.000000 7.125000 0.000000 0.000000 5.600008 40.384577 0.630628
